<svg width="16" height="12" viewBox="0 0 16 12" fill="none" xmlns="http://www.w3.org/2000/svg">
<path d="M12.667 7.33317V1.99984C12.667 1.2665 12.067 0.666504 11.3337 0.666504H2.00033C1.26699 0.666504 0.666992 1.2665 0.666992 1.99984V7.33317C0.666992 8.0665 1.26699 8.6665 2.00033 8.6665H11.3337C12.067 8.6665 12.667 8.0665 12.667 7.33317ZM6.66699 6.6665C5.56033 6.6665 4.66699 5.77317 4.66699 4.6665C4.66699 3.55984 5.56033 2.6665 6.66699 2.6665C7.77366 2.6665 8.66699 3.55984 8.66699 4.6665C8.66699 5.77317 7.77366 6.6665 6.66699 6.6665ZM15.3337 2.6665V9.99984C15.3337 10.7332 14.7337 11.3332 14.0003 11.3332H2.66699V9.99984H14.0003V2.6665H15.3337Z" fill="#111111" fill-opacity="0.35"/>
</svg>
