<svg width="12" height="12" viewBox="0 0 12 12" fill="none" xmlns="http://www.w3.org/2000/svg">
<path d="M0.131802 0.131802C-0.0279589 0.291562 -0.0424824 0.54156 0.0882301 0.717727L0.131802 0.768198L2.55254 3.18894C1.39935 3.99862 0.537464 5.20795 0.17933 6.63863C0.118979 6.87972 0.265496 7.12409 0.506586 7.18444C0.747675 7.24479 0.992041 7.09827 1.05239 6.85718C1.37008 5.58809 2.15467 4.52368 3.2005 3.83671L4.28628 4.92255C3.86177 5.35547 3.6 5.94855 3.6 6.60278C3.6 7.92826 4.67452 9.00278 6 9.00278C6.65422 9.00278 7.2473 8.74101 7.68022 8.3165L11.2318 11.8682C11.4075 12.0439 11.6925 12.0439 11.8682 11.8682C12.028 11.7084 12.0425 11.4584 11.9118 11.2823L11.8682 11.2318L8.20007 7.56329L8.2008 7.5624L4.03126 3.39469L4.032 3.3936L3.35203 2.71529L0.768198 0.131802C0.592462 -0.043934 0.307537 -0.043934 0.131802 0.131802ZM6 2.1C5.39984 2.1 4.81748 2.18884 4.26666 2.355L5.00884 3.09671C5.33032 3.03319 5.66184 3 6 3C8.35384 3 10.3859 4.60816 10.9483 6.85989C11.0085 7.10101 11.2528 7.24767 11.4939 7.18745C11.735 7.12723 11.8817 6.88295 11.8215 6.64182C11.1596 3.99163 8.76931 2.1 6 2.1ZM6.11681 4.20557L8.3976 6.486C8.33655 5.25185 7.34834 4.26459 6.11681 4.20557Z" fill="#212121"/>
</svg>
