<svg width="20" height="20" viewBox="0 0 20 20" fill="none" xmlns="http://www.w3.org/2000/svg">
<g clip-path="url(#clip0_131_4855)">
<path d="M9.9998 18.3333C10.9165 18.3333 11.6665 17.5833 11.6665 16.6666H8.33313C8.33313 17.5833 9.0748 18.3333 9.9998 18.3333ZM14.9998 13.3333V9.16658C14.9998 6.60825 13.6331 4.46659 11.2498 3.89992V3.33325C11.2498 2.64159 10.6915 2.08325 9.9998 2.08325C9.30813 2.08325 8.7498 2.64159 8.7498 3.33325V3.89992C6.35813 4.46659 4.9998 6.59992 4.9998 9.16658V13.3333L3.9248 14.4083C3.3998 14.9333 3.76647 15.8333 4.50813 15.8333H15.4831C16.2248 15.8333 16.5998 14.9333 16.0748 14.4083L14.9998 13.3333Z" fill="#0024F6"/>
<circle cx="12" cy="4" r="3.5" fill="#FF002E" fill-opacity="0.95" stroke="white"/>
</g>
<defs>
<clipPath id="clip0_131_4855">
<rect width="20" height="20" fill="white"/>
</clipPath>
</defs>
</svg>
