<svg width="14" height="14" viewBox="0 0 14 14" fill="none" xmlns="http://www.w3.org/2000/svg">
<path d="M11.9998 7.00016C11.9998 6.84683 11.9931 6.70016 11.9798 6.54683L13.2198 5.60683C13.4864 5.40683 13.5598 5.0335 13.3931 4.74016L12.1464 2.58683C11.9798 2.2935 11.6198 2.1735 11.3131 2.30683L9.87978 2.9135C9.63311 2.74016 9.37311 2.58683 9.09978 2.46016L8.90644 0.920163C8.86644 0.586829 8.57978 0.333496 8.24644 0.333496H5.75978C5.41978 0.333496 5.13311 0.586829 5.09311 0.920163L4.89978 2.46016C4.62644 2.58683 4.36644 2.74016 4.11978 2.9135L2.68644 2.30683C2.37978 2.1735 2.01978 2.2935 1.85311 2.58683L0.606443 4.74683C0.439777 5.04016 0.51311 5.40683 0.779777 5.6135L2.01978 6.5535C2.00644 6.70016 1.99978 6.84683 1.99978 7.00016C1.99978 7.1535 2.00644 7.30016 2.01978 7.4535L0.779777 8.3935C0.51311 8.5935 0.439777 8.96683 0.606443 9.26016L1.85311 11.4135C2.01978 11.7068 2.37978 11.8268 2.68644 11.6935L4.11978 11.0868C4.36644 11.2602 4.62644 11.4135 4.89978 11.5402L5.09311 13.0802C5.13311 13.4135 5.41978 13.6668 5.75311 13.6668H8.23978C8.57311 13.6668 8.85978 13.4135 8.89978 13.0802L9.09311 11.5402C9.36644 11.4135 9.62644 11.2602 9.87311 11.0868L11.3064 11.6935C11.6131 11.8268 11.9731 11.7068 12.1398 11.4135L13.3864 9.26016C13.5531 8.96683 13.4798 8.60016 13.2131 8.3935L11.9731 7.4535C11.9931 7.30016 11.9998 7.1535 11.9998 7.00016ZM7.02644 9.3335C5.73978 9.3335 4.69311 8.28683 4.69311 7.00016C4.69311 5.7135 5.73978 4.66683 7.02644 4.66683C8.31311 4.66683 9.35978 5.7135 9.35978 7.00016C9.35978 8.28683 8.31311 9.3335 7.02644 9.3335Z" fill="#111111" fill-opacity="0.35"/>
</svg>
