<svg width="14" height="12" viewBox="0 0 14 12" fill="none" xmlns="http://www.w3.org/2000/svg">
<path d="M6.11301 6.67984C5.96634 6.67317 5.81967 6.6665 5.66634 6.6665C4.05301 6.6665 2.54634 7.11317 1.25967 7.87984C0.673008 8.2265 0.333008 8.87984 0.333008 9.5665V10.6665C0.333008 11.0332 0.633008 11.3332 0.999674 11.3332H6.50634C5.97967 10.5798 5.66634 9.65984 5.66634 8.6665C5.66634 7.95317 5.83301 7.2865 6.11301 6.67984Z" fill="#111111" fill-opacity="0.35"/>
<path d="M5.66667 5.99984C7.13943 5.99984 8.33333 4.80593 8.33333 3.33317C8.33333 1.86041 7.13943 0.666504 5.66667 0.666504C4.19391 0.666504 3 1.86041 3 3.33317C3 4.80593 4.19391 5.99984 5.66667 5.99984Z" fill="#111111" fill-opacity="0.35"/>
<path d="M12.8329 8.66651C12.8329 8.51984 12.8129 8.38651 12.7929 8.24651L13.3529 7.75984C13.4729 7.65318 13.4996 7.47984 13.4196 7.33984L13.0263 6.65984C12.9463 6.51984 12.7796 6.45984 12.6329 6.51318L11.9263 6.75318C11.7129 6.57318 11.4729 6.43318 11.2063 6.33318L11.0596 5.60651C11.0263 5.45318 10.8929 5.33984 10.7329 5.33984H9.94626C9.78626 5.33984 9.65293 5.45318 9.6196 5.60651L9.47293 6.33318C9.20626 6.43318 8.96626 6.57318 8.75293 6.75318L8.04626 6.51318C7.89293 6.45984 7.73293 6.52651 7.65293 6.65984L7.2596 7.33984C7.1796 7.47984 7.20626 7.65318 7.32626 7.75984L7.88626 8.24651C7.86626 8.38651 7.84626 8.51984 7.84626 8.66651C7.84626 8.81318 7.86626 8.94651 7.88626 9.08651L7.32626 9.57318C7.20626 9.67984 7.1796 9.85318 7.2596 9.99318L7.65293 10.6732C7.73293 10.8132 7.8996 10.8732 8.04626 10.8198L8.75293 10.5798C8.96626 10.7598 9.20626 10.8998 9.47293 10.9998L9.6196 11.7265C9.65293 11.8798 9.78626 11.9932 9.94626 11.9932H10.7329C10.8929 11.9932 11.0263 11.8798 11.0596 11.7265L11.2063 10.9998C11.4729 10.8998 11.7129 10.7598 11.9263 10.5798L12.6329 10.8198C12.7863 10.8732 12.9463 10.8065 13.0263 10.6732L13.4196 9.99318C13.4996 9.85318 13.4729 9.67984 13.3529 9.57318L12.7929 9.08651C12.8129 8.94651 12.8329 8.81318 12.8329 8.66651ZM10.3329 9.99984C9.5996 9.99984 8.9996 9.39984 8.9996 8.66651C8.9996 7.93318 9.5996 7.33318 10.3329 7.33318C11.0663 7.33318 11.6663 7.93318 11.6663 8.66651C11.6663 9.39984 11.0663 9.99984 10.3329 9.99984Z" fill="#111111" fill-opacity="0.35"/>
</svg>
